<svg width="64" height="64" viewBox="0 0 64 64" fill="none" xmlns="http://www.w3.org/2000/svg">
  <!-- Solid Background -->
  <rect width="64" height="64" fill="#131314"/>
  
  <!-- Soccer Ball Outline -->
  <circle cx="32" cy="32" r="24" stroke="#39FF14" stroke-width="2"/>
  
  <!-- Soccer Ball Patterns (Pentagons & Lines) -->
  <g stroke="#39FF14" stroke-width="1.5">
    <!-- Center Pentagon -->
    <path d="M32 22L40 28V38L32 44L24 38V28L32 22Z" fill="#39FF14" fill-opacity="0.2"/>
    
    <!-- Radiating Lines -->
    <path d="M32 22V8"/>
    <path d="M40 28L54 22"/>
    <path d="M40 38L54 44"/>
    <path d="M32 44V56"/>
    <path d="M24 38L10 44"/>
    <path d="M24 28L10 22"/>
    
    <!-- Outer Arc Connections -->
    <path d="M10 22C15 15 22 10 32 8" stroke-opacity="0.5"/>
    <path d="M54 22C49 15 42 10 32 8" stroke-opacity="0.5"/>
    <path d="M10 44C15 50 22 55 32 56" stroke-opacity="0.5"/>
    <path d="M54 44C49 50 42 55 32 56" stroke-opacity="0.5"/>
  </g>
</svg>
